<svg xmlns="http://www.w3.org/2000/svg" viewBox="0 0 36 45" x="0px" y="0px"><title>Монтажная область 55</title><g data-name="Слой 3"><path d="M2,18A16.02456,16.02456,0,0,0,16,33.87561V19H9.66406l2.793,2.793L11.043,23.207,5.83594,18l5.207-5.207L12.457,14.207,9.66406,17H16V2.12439A16.02456,16.02456,0,0,0,2,18Z" fill="none"/><path d="M35.457,14.207,34.043,12.793,29.83594,17H27.66406l2.793-2.793L29.043,12.793,24.83594,17H18V0a18,18,0,0,0,0,36V19h6.83594l4.207,4.207L30.457,21.793,27.66406,19h2.17188l4.207,4.207L35.457,21.793,31.66406,18ZM16,17H9.66406l2.793-2.793L11.043,12.793,5.83594,18l5.207,5.207L12.457,21.793,9.66406,19H16V33.87561A16.00125,16.00125,0,0,1,16,2.12439Z"/></g><text x="0" y="51" fill="#000000" font-size="5px" font-weight="bold" font-family="'Helvetica Neue', Helvetica, Arial-Unicode, Arial, Sans-serif">Created by Vadim Solomakhin</text><text x="0" y="56" fill="#000000" font-size="5px" font-weight="bold" font-family="'Helvetica Neue', Helvetica, Arial-Unicode, Arial, Sans-serif">from the Noun Project</text></svg>