<svg xmlns="http://www.w3.org/2000/svg" xmlns:xlink="http://www.w3.org/1999/xlink" version="1.1" x="0px" y="0px" viewBox="0 0 16 20" style="enable-background:new 0 0 16 16;" xml:space="preserve"><g><path d="M12.5,12c-0.276,0-0.5-0.224-0.5-0.5V3H4v8.5C4,11.776,3.776,12,3.5,12S3,11.776,3,11.5v-9C3,2.224,3.224,2,3.5,2h9   C12.776,2,13,2.224,13,2.5v9C13,11.776,12.776,12,12.5,12z"/><path d="M13,14H3c-1.103,0-2-0.897-2-2v-0.5C1,11.224,1.224,11,1.5,11h13c0.276,0,0.5,0.224,0.5,0.5V12C15,13.103,14.103,14,13,14z    M2,12c0,0.552,0.449,1,1,1h10c0.552,0,1-0.448,1-1H2z"/></g><text x="0" y="31" fill="#000000" font-size="5px" font-weight="bold" font-family="'Helvetica Neue', Helvetica, Arial-Unicode, Arial, Sans-serif">Created by icon 54</text><text x="0" y="36" fill="#000000" font-size="5px" font-weight="bold" font-family="'Helvetica Neue', Helvetica, Arial-Unicode, Arial, Sans-serif">from the Noun Project</text></svg>