<svg xmlns="http://www.w3.org/2000/svg" data-name="Layer 1" viewBox="0 0 80 100" x="0px" y="0px"><title>mid-format-file-doc</title><path d="M22,77H58a6.007,6.007,0,0,0,6-6V61a2,2,0,0,0-4,0V71a2,2,0,0,1-2,2H22a2,2,0,0,1-2-2V61a2,2,0,0,0-4,0V71A6.007,6.007,0,0,0,22,77Z"/><path d="M18,37a2,2,0,0,0,2-2V9a2,2,0,0,1,2-2H46v8a6.007,6.007,0,0,0,6,6h8V35a2,2,0,0,0,4,0V18.657a5.959,5.959,0,0,0-1.757-4.242L52.585,4.757A5.959,5.959,0,0,0,48.343,3H22a6.007,6.007,0,0,0-6,6V35A2,2,0,0,0,18,37ZM50,7.828,59.172,17H52a2,2,0,0,1-2-2Z"/><path d="M32,56a2,2,0,0,0,2-2V42a2,2,0,0,0-3.627-1.163L27,45.559l-3.373-4.722A2,2,0,0,0,20,42V54a2,2,0,0,0,4,0V48.241l1.373,1.922a2,2,0,0,0,3.255,0L30,48.241V54A2,2,0,0,0,32,56Z"/><path d="M44,44a2,2,0,0,0,0-4H38a2,2,0,0,0,0,4h1v8H38a2,2,0,0,0,0,4h6a2,2,0,0,0,0-4H43V44Z"/><path d="M55,40H50a2,2,0,0,0-2,2V54a2,2,0,0,0,2,2h5a6.007,6.007,0,0,0,6-6V46A6.007,6.007,0,0,0,55,40Zm2,10a2,2,0,0,1-2,2H52V44h3a2,2,0,0,1,2,2Z"/><text x="0" y="95" fill="#000000" font-size="5px" font-weight="bold" font-family="'Helvetica Neue', Helvetica, Arial-Unicode, Arial, Sans-serif">Created by Timofei Rostilov</text><text x="0" y="100" fill="#000000" font-size="5px" font-weight="bold" font-family="'Helvetica Neue', Helvetica, Arial-Unicode, Arial, Sans-serif">from the Noun Project</text></svg>